<svg xmlns="http://www.w3.org/2000/svg" width="1024" height="1024" viewBox="-40.960 -767.960 1105.920 639.920" role="img"><title>_1c-icon</title><path d="M233 727V169H93V541H0V681H93V727H233ZM689 495H833Q824 543 800 586Q776 628 739.5 659.5Q703 691 657 709Q611 727 559 727Q501 727 450 705Q399 683 361.0 645.0Q323 607 301 556Q279 506 279 448Q279 392 300 342Q322 292 358.5 254.0Q395 216 444 193Q493 171 549 169H1024V308H559Q509 309 476 334Q443 359 429.0 394.5Q415 430 421 469Q426 509 452 540Q479 570 514 581Q549 592 583.5 585.0Q618 578 647 555Q676 532 689 494Z" transform="scale(1,-1)"/></svg>
