<svg xmlns="http://www.w3.org/2000/svg" width="1024" height="1024" viewBox="-40.960 -745.960 1105.920 595.920" role="img"><title>bibtex-icon</title><path d="M0 705V687Q20 687 33.0 686.0Q46 685 51 683Q57 680 60.0 672.5Q63 665 63 651V245Q63 231 60.0 223.5Q57 216 51 213Q46 211 33.0 210.0Q20 209 0 209V191H259Q277 191 293.0 194.0Q309 197 323 203Q338 208 350.0 216.0Q362 224 373 234Q383 243 391.0 254.0Q399 265 405 278Q410 290 413.0 303.0Q416 316 416 330Q416 342 413.0 354.0Q410 366 405 377Q399 389 391.5 399.0Q384 409 374 418Q365 427 353.5 434.0Q342 441 329 446Q316 452 302.0 455.0Q288 458 272 459Q286 462 298.0 466.0Q310 470 322 476Q333 481 342.5 488.0Q352 495 360 503Q368 511 374.0 520.0Q380 529 385 538Q389 548 391.0 558.5Q393 569 393 580Q393 592 390.5 603.0Q388 614 382 626Q376 637 368.0 647.0Q360 657 350 666Q340 675 327.5 682.0Q315 689 301 694Q286 700 270.0 702.5Q254 705 237 705H0ZM107 468V660Q107 671 108.0 677.0Q109 683 111 686Q113 689 120.0 690.5Q127 692 139 692H232Q246 692 257.5 689.5Q269 687 279 682Q289 677 297.5 670.5Q306 664 313 657Q319 649 324.5 640.5Q330 632 333 622Q336 612 338.0 603.0Q340 594 340 584Q340 574 338.0 563.0Q336 552 331 542Q327 531 321.0 522.0Q315 513 307 504Q299 496 289.5 489.5Q280 483 268 478Q256 473 243.0 470.5Q230 468 215 468H107ZM139 213Q127 213 120.0 214.5Q113 216 111 219Q109 222 108.0 228.5Q107 235 107 245V455H246Q260 455 272.5 452.0Q285 449 296 443Q306 438 314.5 430.5Q323 423 330 414Q337 405 342.0 395.0Q347 385 351 374Q354 363 356.0 352.0Q358 341 358 330Q358 320 356.0 309.5Q354 299 350 288Q346 278 340.5 268.0Q335 258 327 249Q319 240 309.5 233.0Q300 226 288 220Q276 214 262.0 211.5Q248 209 232 209H139V213ZM559 526Q559 538 561.0 545.5Q563 553 568 556Q572 559 584.5 560.5Q597 562 617 562V580Q607 578 595.5 577.0Q584 576 571 576Q558 576 548.5 575.5Q539 575 532 575Q525 575 515.5 575.5Q506 576 493 576Q480 576 468.5 577.0Q457 578 447 580V562Q467 562 479.0 560.5Q491 559 494 556Q497 553 499.0 545.5Q501 538 501 526V249Q501 237 499.0 229.5Q497 222 493 219Q488 216 477.0 214.5Q466 213 447 213V196H617V213Q597 213 584.5 214.5Q572 216 568 219Q563 222 561.0 229.5Q559 237 559 249V526ZM661 580V562Q680 562 691.5 560.5Q703 559 707 556Q711 553 713.0 545.5Q715 538 715 526V249Q715 237 713.0 229.5Q711 222 707 219Q703 216 691.5 214.5Q680 213 661 213V196H890Q906 196 920.0 198.0Q934 200 947 204Q959 208 969.5 213.5Q980 219 989 227Q997 234 1003.5 242.0Q1010 250 1015 260Q1019 269 1021.5 278.5Q1024 288 1024 298Q1024 307 1022.0 316.0Q1020 325 1015 333Q1011 341 1005.0 348.5Q999 356 991 362Q984 369 975.0 374.5Q966 380 956 384Q946 389 935.0 392.0Q924 395 912 397Q932 400 949.0 407.5Q966 415 979 428Q992 440 999.0 454.5Q1006 469 1006 486Q1006 495 1003.5 504.0Q1001 513 996 521Q991 530 984.5 537.5Q978 545 969 551Q960 558 949.5 563.0Q939 568 927 572Q914 576 900.5 578.0Q887 580 872 580H661ZM760 401V526Q760 538 761.5 545.0Q763 552 766 554Q769 556 775.0 557.0Q781 558 791 558H863Q888 558 904.5 550.0Q921 542 928 526Q936 511 939.5 499.5Q943 488 943 482Q943 472 938.5 459.0Q934 446 924 431Q915 416 895.0 408.5Q875 401 845 401H760ZM760 387H872Q895 387 911.5 379.0Q928 371 938 355Q947 338 952.0 324.0Q957 310 957 298Q957 285 951.5 271.0Q946 257 935 242Q924 228 906.0 220.5Q888 213 863 213H791Q781 213 775.0 214.5Q769 216 766 219Q763 222 761.5 228.5Q760 235 760 245V387Z" transform="scale(1,-1)"/></svg>
