<svg xmlns="http://www.w3.org/2000/svg" width="1024" height="1024" viewBox="-40.378 -959.917 1104.757 1023.834" role="img"><title>hy-icon</title><path d="M479 919Q441 919 394.5 911.5Q348 904 302 868Q256 833 216.0 767.0Q176 701 135 590L76 426Q59 378 35.0 310.5Q11 243 3 177Q-1 143 1.5 109.5Q4 76 21 45Q39 14 74.0 -4.0Q109 -22 151 -23H484L448 82H153Q115 82 107 111Q99 140 108.0 185.5Q117 231 137 285Q157 340 175 391Q219 518 249 599Q280 680 310.5 727.0Q341 774 380 793Q418 811 479 814H546L509 919H479ZM479 788Q431 788 392.0 766.0Q353 744 336 711Q301 640 276 578Q250 515 228.5 456.0Q207 397 187 337Q167 277 143 211Q133 175 132.5 141.0Q132 107 175 107L217 108L342 457L421 239H532L399 609Q410 633 430.0 658.0Q450 683 479 683H594L556 788H479ZM545 -23Q583 -23 629.5 -15.5Q676 -8 722 28Q768 63 808.0 129.0Q848 195 889 306L948 470Q965 518 989.0 585.5Q1013 653 1021 719Q1025 753 1022.5 786.5Q1020 820 1003 851Q985 882 950.0 900.0Q915 918 873 919H540L576 814H871Q909 814 917 785Q925 756 916.0 710.5Q907 665 887 611Q867 556 849 505Q805 378 775 297Q744 216 713.5 169.0Q683 122 644 103Q606 85 545 82H478L515 -23H545ZM545 108Q593 108 632.0 130.0Q671 152 688 185Q723 256 748 318Q774 381 795.5 440.0Q817 499 837 559Q857 619 881 685Q891 721 891.5 755.0Q892 789 849 789L807 788L682 439L603 657H492L625 287Q614 263 594.0 238.0Q574 213 545 213H430L468 108H545Z" transform="scale(1,-1)"/></svg>
