<svg xmlns="http://www.w3.org/2000/svg" width="1024" height="1024" viewBox="-41.117 -1001.270 1108.288 1105.678" role="img"><title>shuriken-icon</title><path d="M658 695Q690 643 741 657Q792 671 844.0 716.5Q896 762 940 823Q983 884 1000 927Q1046 757 1011 638Q976 520 915.0 443.0Q854 366 794 325Q734 284 729 269Q734 217 754 172Q773 128 806.0 89.5Q839 51 885 18Q932 -15 992 -44Q917 -66 831 -63Q745 -60 659.5 -30.5Q574 -1 495 56Q417 113 358 200Q331 240 281 227Q231 214 179.0 173.0Q127 132 83 74Q40 17 28 -32Q2 53 0 119Q-1 185 12.5 239.5Q26 294 50 340Q74 386 99 430Q128 480 163 511Q198 543 228.5 566.5Q259 590 278 611Q297 633 294 664Q289 708 263 750Q238 793 200.5 829.5Q163 866 118 893Q73 920 29 933Q117 968 212 958Q307 948 393.5 909.5Q480 871 550 813Q620 755 658 695ZM608 433Q608 494 554.5 524.5Q501 555 448 524Q395 494 395.0 432.5Q395 371 448 341Q501 310 554.5 341.0Q608 372 608 433Z" transform="scale(1,-1)"/></svg>
